<svg width="96" height="73" viewBox="0 0 96 73" fill="none" xmlns="http://www.w3.org/2000/svg">
<rect x="37" y="21" width="4" height="31" transform="rotate(90 37 21)" fill="#174DF2"/>
<rect width="4" height="31" transform="matrix(3.39767e-08 1 1 -3.39767e-08 59 0.000244141)" fill="#174DF2"/>
<rect width="4" height="20" transform="matrix(-3.39767e-08 -1 -1 3.39767e-08 36.9998 63)" fill="#174DF2"/>
<rect x="61" y="47" width="4" height="18" transform="rotate(-90 61 47)" fill="#174DF2"/>
<rect x="41" y="18.0002" width="4" height="40" transform="rotate(-90 41 18.0002)" fill="#174DF2"/>
<rect x="68" y="32.0002" width="4" height="13" transform="rotate(-90 68 32.0002)" fill="#174DF2"/>
<rect width="4" height="31" transform="matrix(3.39767e-08 1 1 -3.39767e-08 27 21.0002)" fill="#174DF2"/>
<rect x="62" width="4" height="31" transform="rotate(90 62 0)" fill="#174DF2"/>
<rect x="26.9998" y="63.0002" width="4" height="31" transform="rotate(-90 26.9998 63.0002)" fill="#174DF2"/>
<rect x="7" y="27.0002" width="4" height="4" transform="rotate(-180 7 27.0002)" fill="#174DF2"/>
<rect width="4" height="4" transform="matrix(1 -7.81903e-08 -1.06977e-07 -1 89 6.00024)" fill="#174DF2"/>
<rect width="4" height="4" transform="matrix(-1 7.81903e-08 1.06977e-07 1 7 57)" fill="#174DF2"/>
<rect x="89" y="41" width="4" height="4" fill="#174DF2"/>
<rect width="4" height="4" transform="matrix(-1 7.81903e-08 1.06977e-07 1 13.0002 67)" fill="#174DF2"/>
<rect x="83" y="51.0002" width="4" height="4" fill="#174DF2"/>
<rect width="3" height="13" transform="matrix(-1 7.81903e-08 1.06977e-07 1 9 60.0002)" fill="#174DF2"/>
<rect x="87" y="44" width="3" height="13" fill="#174DF2"/>
<rect width="4" height="4" transform="matrix(-1 7.81903e-08 1.06977e-07 1 17.0002 63)" fill="#174DF2"/>
<rect x="79" y="47.0002" width="4" height="4" fill="#174DF2"/>
<rect width="4" height="4" transform="matrix(1 -7.81903e-08 -1.06977e-07 -1 57 27.0002)" fill="#174DF2"/>
<rect x="31.9998" y="6.00024" width="4" height="4" transform="rotate(-180 31.9998 6.00024)" fill="#174DF2"/>
<rect x="57" y="57" width="4" height="4" fill="#174DF2"/>
<rect x="4" y="26" width="32" height="4" transform="rotate(90 4 26)" fill="#174DF2"/>
<rect width="37" height="4" transform="matrix(3.39767e-08 1 1 -3.39767e-08 92 5)" fill="#174DF2"/>
<rect width="32" height="4" transform="matrix(3.39767e-08 1 1 -3.39767e-08 60 26)" fill="#174DF2"/>
<rect x="29" y="5" width="16" height="4" transform="rotate(90 29 5)" fill="#174DF2"/>
</svg>
