<svg width="130" height="94" viewBox="0 0 130 94" fill="none" xmlns="http://www.w3.org/2000/svg">
<rect x="7" y="33" width="48" height="4" transform="rotate(90 7 33)" fill="#174DF2"/>
<rect x="92" y="85" width="92" height="3.99999" transform="rotate(-180 92 85)" fill="#174DF2"/>
<rect x="14" y="37" width="7" height="4" transform="rotate(-180 14 37)" fill="#174DF2"/>
<rect x="20" y="41" width="7" height="4" transform="rotate(-180 20 41)" fill="#174DF2"/>
<rect x="43" y="43" width="7" height="4" transform="rotate(-180 43 43)" fill="#174DF2"/>
<rect x="66" y="43" width="7" height="4" transform="rotate(-180 66 43)" fill="#174DF2"/>
<rect x="24" y="45" width="7" height="4" transform="rotate(-180 24 45)" fill="#174DF2"/>
<rect x="47" y="47" width="7" height="4" transform="rotate(-180 47 47)" fill="#174DF2"/>
<rect x="70" y="47" width="7" height="4" transform="rotate(-180 70 47)" fill="#174DF2"/>
<rect x="28" y="49" width="7" height="4" transform="rotate(-180 28 49)" fill="#174DF2"/>
<rect x="51" y="51" width="7" height="4" transform="rotate(-180 51 51)" fill="#174DF2"/>
<rect x="75" y="51" width="8" height="4" transform="rotate(-180 75 51)" fill="#174DF2"/>
<rect x="91" y="53" width="16" height="4" transform="rotate(-180 91 53)" fill="#174DF2"/>
<rect x="78" y="49" width="27" height="4" transform="rotate(-90 78 49)" fill="#174DF2"/>
<rect x="87" y="49" width="27" height="4" transform="rotate(-90 87 49)" fill="#174DF2"/>
<rect x="87" y="49" width="27" height="4" transform="rotate(-90 87 49)" fill="#174DF2"/>
<rect x="81" y="22" width="6" height="4" fill="#174DF2"/>
<rect x="81" y="42" width="4" height="3" fill="#174DF2"/>
<rect x="81" y="35" width="4" height="3" fill="#174DF2"/>
<rect x="84" y="40" width="4" height="3" fill="#174DF2"/>
<rect x="84" y="40" width="4" height="3" fill="#174DF2"/>
<rect x="84" y="33" width="4" height="3" fill="#174DF2"/>
<rect x="48" y="62" width="10" height="4" fill="#174DF2"/>
<rect x="71" y="73" width="17" height="4" fill="#174DF2"/>
<rect x="31" y="62" width="10" height="4" fill="#174DF2"/>
<rect x="14" y="62" width="10" height="4" fill="#174DF2"/>
<rect x="48" y="70" width="10" height="4" fill="#174DF2"/>
<rect x="31" y="70" width="10" height="4" fill="#174DF2"/>
<rect x="14" y="70" width="10" height="4" fill="#174DF2"/>
<rect x="48" y="66" width="3" height="4" fill="#174DF2"/>
<rect x="71" y="62" width="3" height="4" transform="rotate(90 71 62)" fill="#174DF2"/>
<rect x="81" y="62" width="3" height="4" transform="rotate(90 81 62)" fill="#174DF2"/>
<rect x="91" y="62" width="3" height="4" transform="rotate(90 91 62)" fill="#174DF2"/>
<rect x="31" y="66" width="3" height="4" fill="#174DF2"/>
<rect x="14" y="66" width="3" height="4" fill="#174DF2"/>
<rect x="55" y="66" width="3" height="4" fill="#174DF2"/>
<rect x="71" y="77" width="3" height="4" fill="#174DF2"/>
<rect x="78" y="77" width="3" height="4" fill="#174DF2"/>
<rect x="85" y="77" width="3" height="4" fill="#174DF2"/>
<rect x="79" y="9" width="3" height="9" fill="#174DF2"/>
<rect x="82" y="6" width="3" height="9" fill="#174DF2"/>
<rect x="85" y="6" width="4" height="6" fill="#174DF2"/>
<rect x="113" y="45" width="3" height="6" transform="rotate(90 113 45)" fill="#174DF2"/>
<rect x="108" y="47" width="3" height="6" transform="rotate(90 108 47)" fill="#174DF2"/>
<rect width="3" height="6" transform="matrix(4.37114e-08 1 1 -4.37114e-08 112 47)" fill="#174DF2"/>
<rect x="103" y="49" width="3" height="8" transform="rotate(90 103 49)" fill="#174DF2"/>
<rect x="97" y="52" width="3" height="7" transform="rotate(90 97 52)" fill="#174DF2"/>
<rect x="93" y="72" width="3" height="17" transform="rotate(-180 93 72)" fill="#174DF2"/>
<rect width="3" height="17" transform="matrix(1 -8.74228e-08 -8.74228e-08 -1 127 72)" fill="#174DF2"/>
<rect x="95" y="79" width="3" height="8" transform="rotate(-180 95 79)" fill="#174DF2"/>
<rect width="3" height="8" transform="matrix(1 -8.74228e-08 -8.74228e-08 -1 125 79)" fill="#174DF2"/>
<rect x="98" y="83" width="3" height="6" transform="rotate(-180 98 83)" fill="#174DF2"/>
<rect width="3" height="6" transform="matrix(1 -8.74228e-08 -8.74228e-08 -1 122 83)" fill="#174DF2"/>
<rect x="101" y="86" width="3" height="4" transform="rotate(-180 101 86)" fill="#174DF2"/>
<rect width="3" height="4" transform="matrix(1 -8.74228e-08 -8.74228e-08 -1 119 86)" fill="#174DF2"/>
<rect x="104" y="89" width="3" height="3" transform="rotate(-180 104 89)" fill="#174DF2"/>
<rect x="109" y="78" width="3" height="3" transform="rotate(-180 109 78)" fill="#174DF2"/>
<rect x="112" y="75" width="3" height="3" transform="rotate(-180 112 75)" fill="#174DF2"/>
<rect x="114" y="73" width="3" height="3" transform="rotate(-180 114 73)" fill="#174DF2"/>
<rect x="116" y="71" width="3" height="3" transform="rotate(-180 116 71)" fill="#174DF2"/>
<rect x="118" y="69" width="3" height="3" transform="rotate(-180 118 69)" fill="#174DF2"/>
<rect x="120" y="67" width="3" height="3" transform="rotate(-180 120 67)" fill="#174DF2"/>
<rect x="122" y="65" width="3" height="3" transform="rotate(-180 122 65)" fill="#174DF2"/>
<rect x="107" y="76" width="3" height="3" transform="rotate(-180 107 76)" fill="#174DF2"/>
<rect x="105" y="74" width="3" height="3" transform="rotate(-180 105 74)" fill="#174DF2"/>
<rect x="103" y="72" width="3" height="3" transform="rotate(-180 103 72)" fill="#174DF2"/>
<rect width="3" height="3" transform="matrix(1 -8.74228e-08 -8.74228e-08 -1 116 89)" fill="#174DF2"/>
<rect x="107" y="92" width="3" height="3" transform="rotate(-180 107 92)" fill="#174DF2"/>
<rect width="3" height="3" transform="matrix(1 -8.74228e-08 -8.74228e-08 -1 113 92)" fill="#174DF2"/>
<rect x="113" y="94" width="6" height="3" transform="rotate(-180 113 94)" fill="#174DF2"/>
<rect x="130" y="52" width="3" height="7" transform="rotate(90 130 52)" fill="#174DF2"/>
<rect width="3" height="8" transform="matrix(4.37114e-08 1 1 -4.37114e-08 117 49)" fill="#174DF2"/>
<rect x="89" width="3" height="9" fill="#174DF2"/>
<rect x="89" width="3" height="5" transform="rotate(90 89 0)" fill="#174DF2"/>
<rect x="87" y="6" width="3" height="3" transform="rotate(-180 87 6)" fill="#174DF2"/>
<rect x="38" y="66" width="3" height="4" fill="#174DF2"/>
<rect x="21" y="66" width="3" height="4" fill="#174DF2"/>
<rect x="36" y="53" width="8" height="4" transform="rotate(-180 36 53)" fill="#174DF2"/>
<rect x="59" y="53" width="8" height="4" transform="rotate(-180 59 53)" fill="#174DF2"/>
<rect x="32" y="49" width="12" height="4" transform="rotate(-90 32 49)" fill="#174DF2"/>
<rect x="55" y="49" width="12" height="4" transform="rotate(-90 55 49)" fill="#174DF2"/>
</svg>
