<svg width="155" height="65" viewBox="0 0 155 65" fill="none" xmlns="http://www.w3.org/2000/svg">
<path d="M137.631 64.6514V59.6718H142.237V64.6514H137.631Z" fill="black"/>
<path d="M126.787 64.6513H116.877V47.7457H127.235C130.347 47.7457 134.331 48.8412 134.306 52.4265C134.306 54.0448 133.584 55.7379 132.065 56.3852C133.41 56.9828 134.53 58.0285 134.505 59.9456C134.455 63.755 130.123 64.6513 126.787 64.6513ZM121.459 57.5554V61.7383H127.31C129.077 61.7383 129.974 60.817 129.974 59.597C129.974 58.0534 128.729 57.5554 127.26 57.5554H121.459ZM126.961 51.0571H121.459V55.1901H127.26C128.779 55.1901 129.974 54.6175 129.974 53.0987C129.974 51.4803 128.505 51.0571 126.961 51.0571Z" fill="black"/>
<path d="M104.943 64.9751C98.6685 64.9751 96.2036 61.1657 96.2036 58.4519V47.696H100.76V59.0992C100.76 61.3151 103.175 62.3359 105.117 62.3359C107.084 62.3359 109.126 60.9665 109.126 59.0992V47.696H113.707V58.4519C113.707 61.1906 111.117 64.9751 104.943 64.9751Z" fill="black"/>
<path d="M85.635 61.2652H94.0505V64.6513H81.4272V47.7706H85.635V61.2652Z" fill="black"/>
<path d="M57.3049 56.0617C57.3049 50.8829 62.1351 47.1233 68.1604 47.1482C73.6877 47.1482 78.1942 49.7376 78.7669 54.1694L74.4347 54.5678C74.0612 51.3809 71.1481 50.1858 68.0857 50.1609C64.351 50.136 61.7368 52.5262 61.7368 56.1364C61.7368 59.5972 63.9527 62.062 68.1355 62.062C71.4967 62.062 73.9367 60.5184 74.36 58.0037L78.5926 58.5515C77.9453 62.4355 73.4139 65 68.1604 65C62.16 65 57.3049 61.1159 57.3049 56.0617Z" fill="black"/>
<path d="M135.611 32.1265C135.611 27.1718 139.993 23.1882 146.043 23.1882C149.404 23.1882 152.367 24.5576 154.259 26.6739L150.35 28.9396C149.305 27.8192 147.686 27.0722 145.943 27.0722C142.757 27.0722 140.167 29.3379 140.167 32.1265C140.167 35.3134 142.508 37.2057 145.67 37.2057C147.114 37.2057 149.23 36.5334 150.276 35.3632V33.6453H143.902V31.1804H154.21V40.9404H151.172V39.1726C149.579 40.293 147.612 41.1146 145.67 41.1146C139.47 41.1146 135.611 37.1061 135.611 32.1265Z" fill="black"/>
<path d="M117.163 40.7909L117.113 23.7857H121.669L128.591 34.2179V23.7857H133.122V40.7909H129.164L121.694 30.1346V40.7909H117.163Z" fill="black"/>
<path d="M113.497 23.9101V40.7909H108.916V23.9101H113.497Z" fill="black"/>
<path d="M84.7937 32.2012C84.7937 27.0224 89.6239 23.2629 95.6492 23.2878C101.176 23.2878 105.683 25.8771 106.256 30.3089L101.923 30.7073C101.55 27.5204 98.6369 26.3253 95.5745 26.3004C91.8398 26.2755 89.2255 28.6657 89.2255 32.2759C89.2255 35.7367 91.4414 38.2016 95.6243 38.2016C98.9855 38.2016 101.425 36.6579 101.849 34.1432L106.081 34.691C105.434 38.575 100.903 41.1395 95.6492 41.1395C89.6488 41.1395 84.7937 37.2555 84.7937 32.2012Z" fill="black"/>
<path d="M70.1836 40.791H66.0256V23.8355H76.9558C80.4415 23.8355 83.4541 25.1302 83.4541 28.84C83.4541 32.2759 80.9644 34.1433 78.4746 34.218H77.4787L83.4292 40.791H78.5244L72.997 34.218H70.1836V40.791ZM76.9309 27.1968H70.1836V31.7531H76.8811C78.2007 31.7531 79.3709 30.8567 79.3709 29.4127C79.3709 27.869 78.1758 27.1968 76.9309 27.1968Z" fill="black"/>
<path d="M54.091 41.1147C47.8167 41.1147 45.3518 37.3053 45.3518 34.5914V23.8355H49.9081V35.2388C49.9081 37.4547 52.3232 38.4755 54.2652 38.4755C56.2322 38.4755 58.2738 37.1061 58.2738 35.2388V23.8355H62.855V34.5914C62.855 37.3302 60.2656 41.1147 54.091 41.1147Z" fill="black"/>
<path d="M32.4805 41.1394C26.4801 41.1394 21.625 37.2304 21.625 32.2509C21.625 27.2713 26.4552 23.2876 32.5054 23.2876C38.4809 23.2876 43.3359 27.1468 43.3359 32.2011C43.3359 37.2304 38.5058 41.1394 32.4805 41.1394ZM26.3058 32.3505C26.3058 36.0353 29.2189 37.9027 32.4307 37.9027C35.7172 37.9027 38.68 35.9606 38.68 32.1513C38.68 28.5909 36.0907 26.599 32.7046 26.5741C29.1193 26.5492 26.3058 28.6905 26.3058 32.3505Z" fill="black"/>
<path d="M0 35.3632H5.02937C5.00447 37.4297 7.31997 37.9525 10.0587 37.9525C13.1212 37.9525 15.2624 37.2056 15.2624 35.7615C15.2624 31.5289 0.323672 36.5583 0.323672 28.815C0.323672 25.4538 4.15794 23.5367 10.2828 23.5367C15.4367 23.5367 19.8436 24.8812 19.7938 29.4873H15.113C15.113 27.1967 12.8722 26.6489 10.2828 26.6489C7.69344 26.6489 5.22855 27.1967 5.22855 29.0889C5.22855 33.0477 20.0428 28.7901 20.0428 35.7864C20.0428 39.4464 14.8142 41.1395 10.0836 41.1395C1.09551 41.1395 0 37.2305 0 35.3632Z" fill="black"/>
<path d="M66.9607 0H79.5092V3.28652H71.1186V7.66854H78.7125V10.0089H71.1186V14.0175H79.5092V16.9306H66.9607V0Z" fill="black"/>
<path d="M49.7321 16.9304H45.1509V0.0496521H49.7321V7.04595H58.8945V0.0496521H63.5006V16.9304H58.8945V10.0337H49.7321V16.9304Z" fill="black"/>
<path d="M32.6974 3.5106H26.6223V0H42.9055V3.5106H36.8553V16.9306H32.6974V3.5106Z" fill="black"/>
</svg>
