<svg width="96" height="103" viewBox="0 0 96 103" fill="none" xmlns="http://www.w3.org/2000/svg">
<rect x="66" y="23" width="4" height="20" fill="#174DF2"/>
<rect x="50" width="4" height="47" transform="rotate(90 50 0)" fill="#174DF2"/>
<rect width="4" height="41" transform="matrix(-4.37114e-08 -1 -1 4.37114e-08 44 90)" fill="#174DF2"/>
<rect x="5" y="6" width="4" height="4" transform="rotate(-180 5 6)" fill="#174DF2"/>
<rect width="4" height="4" transform="matrix(-1 6.99382e-08 1.09278e-07 1 5 84)" fill="#174DF2"/>
<rect x="4" y="5" width="81" height="4" transform="rotate(90 4 5)" fill="#174DF2"/>
<rect x="55" y="68" width="3" height="3" transform="rotate(90 55 68)" fill="#174DF2"/>
<rect x="23" y="16" width="3" height="3" transform="rotate(90 23 16)" fill="#174DF2"/>
<rect x="12" y="27" width="3" height="3" transform="rotate(90 12 27)" fill="#174DF2"/>
<rect x="12" y="16" width="6" height="3" transform="rotate(90 12 16)" fill="#174DF2"/>
<rect x="23" y="24" width="6" height="3" transform="rotate(90 23 24)" fill="#174DF2"/>
<rect x="20" y="14" width="3" height="8" transform="rotate(90 20 14)" fill="#174DF2"/>
<rect x="20" y="21" width="3" height="8" transform="rotate(90 20 21)" fill="#174DF2"/>
<rect x="17.5" y="34.5" width="3" height="24" transform="rotate(-180 17.5 34.5)" fill="#174DF2"/>
<rect x="20" y="29" width="3" height="8" transform="rotate(90 20 29)" fill="#174DF2"/>
<rect x="58" y="71" width="3" height="3" transform="rotate(90 58 71)" fill="#174DF2"/>
<rect x="61" y="74" width="3" height="3" transform="rotate(90 61 74)" fill="#174DF2"/>
<rect x="64" y="71" width="3" height="3" transform="rotate(90 64 71)" fill="#174DF2"/>
<rect x="67" y="68" width="3" height="3" transform="rotate(90 67 68)" fill="#174DF2"/>
<rect x="70" y="65" width="3" height="3" transform="rotate(90 70 65)" fill="#174DF2"/>
<rect x="80" y="88" width="3" height="3" transform="rotate(90 80 88)" fill="#174DF2"/>
<rect x="84" y="84" width="3" height="3" transform="rotate(90 84 84)" fill="#174DF2"/>
<rect x="83" y="91" width="3" height="3" transform="rotate(90 83 91)" fill="#174DF2"/>
<rect x="87" y="87" width="3" height="3" transform="rotate(90 87 87)" fill="#174DF2"/>
<rect x="86" y="94" width="3" height="3" transform="rotate(90 86 94)" fill="#174DF2"/>
<rect x="90" y="90" width="3" height="3" transform="rotate(90 90 90)" fill="#174DF2"/>
<rect x="89" y="97" width="3" height="3" transform="rotate(90 89 97)" fill="#174DF2"/>
<rect x="93" y="93" width="3" height="3" transform="rotate(90 93 93)" fill="#174DF2"/>
<rect x="96" y="95" width="5" height="3" transform="rotate(90 96 95)" fill="#174DF2"/>
<rect x="88" y="100" width="5" height="3" fill="#174DF2"/>
<rect x="73" y="62" width="3" height="3" transform="rotate(90 73 62)" fill="#174DF2"/>
<rect x="54" y="4" width="5" height="4" transform="rotate(90 54 4)" fill="#174DF2"/>
<rect x="59" y="9" width="5" height="5" transform="rotate(90 59 9)" fill="#174DF2"/>
<rect x="63" y="14" width="5" height="4" transform="rotate(90 63 14)" fill="#174DF2"/>
<rect x="44" y="44" width="35" height="4" transform="rotate(-180 44 44)" fill="#174DF2"/>
<rect x="36" y="54" width="27" height="4" transform="rotate(-180 36 54)" fill="#174DF2"/>
<rect x="34" y="64" width="25" height="4" transform="rotate(-180 34 64)" fill="#174DF2"/>
<rect x="34" y="74" width="25" height="4" transform="rotate(-180 34 74)" fill="#174DF2"/>
<rect x="70" y="51" width="15" height="4" transform="rotate(-180 70 51)" fill="#174DF2"/>
<rect x="55" y="88" width="15" height="4" fill="#174DF2"/>
<rect x="56" y="55" width="8" height="4" transform="rotate(-180 56 55)" fill="#174DF2"/>
<rect x="69" y="84" width="8" height="4" fill="#174DF2"/>
<rect x="44" y="62" width="7" height="4" transform="rotate(-90 44 62)" fill="#174DF2"/>
<rect x="40" y="77" width="15" height="4" transform="rotate(-90 40 77)" fill="#174DF2"/>
<rect x="81" y="77" width="15" height="4" transform="rotate(-90 81 77)" fill="#174DF2"/>
<rect x="81" y="77" width="7" height="4" transform="rotate(90 81 77)" fill="#174DF2"/>
<rect x="77" y="62" width="7" height="4" transform="rotate(-90 77 62)" fill="#174DF2"/>
<rect x="48" y="77" width="7" height="4" transform="rotate(90 48 77)" fill="#174DF2"/>
<rect x="77" y="55" width="8" height="4" transform="rotate(-180 77 55)" fill="#174DF2"/>
<rect x="48" y="84" width="8" height="4" fill="#174DF2"/>
<rect x="50" y="4" width="19" height="4" transform="rotate(90 50 4)" fill="#174DF2"/>
<rect x="67" y="23" width="17" height="4" transform="rotate(-180 67 23)" fill="#174DF2"/>
</svg>
