<svg width="78" height="78" viewBox="0 0 78 78" fill="none" xmlns="http://www.w3.org/2000/svg">
<rect width="3" height="5" transform="matrix(4.37114e-08 -1 -1 -4.37114e-08 19 7)" fill="#174DF2"/>
<rect x="19" y="50" width="3" height="5" transform="rotate(90 19 50)" fill="#174DF2"/>
<rect width="4" height="4" transform="matrix(4.37114e-08 -1 -1 -4.37114e-08 14 10)" fill="#174DF2"/>
<rect x="14" y="47" width="3" height="4" transform="rotate(90 14 47)" fill="#174DF2"/>
<rect width="4" height="5" transform="matrix(4.37114e-08 -1 -1 -4.37114e-08 11 14)" fill="#174DF2"/>
<rect x="11" y="43" width="4" height="5" transform="rotate(90 11 43)" fill="#174DF2"/>
<rect width="3" height="6" transform="matrix(1 0 0 -1 4 19)" fill="#174DF2"/>
<rect x="4" y="38" width="3" height="6" fill="#174DF2"/>
<rect x="54" y="50" width="3" height="3" transform="rotate(-180 54 50)" fill="#174DF2"/>
<rect x="61" y="53" width="7" height="3" transform="rotate(-180 61 53)" fill="#174DF2"/>
<rect width="7" height="3" transform="matrix(-4.37114e-08 1 1 4.37114e-08 50 53)" fill="#174DF2"/>
<rect x="64" y="57" width="6" height="4" transform="rotate(-180 64 57)" fill="#174DF2"/>
<rect x="53" y="63" width="10" height="5" transform="rotate(-90 53 63)" fill="#174DF2"/>
<rect x="57" y="67" width="10" height="4" transform="rotate(-90 57 67)" fill="#174DF2"/>
<rect x="61" y="71" width="14" height="3" transform="rotate(-90 61 71)" fill="#174DF2"/>
<rect x="68" y="61" width="7" height="4" transform="rotate(-180 68 61)" fill="#174DF2"/>
<rect x="71" y="64" width="7" height="3" transform="rotate(-180 71 64)" fill="#174DF2"/>
<rect x="74" y="68" width="6" height="4" transform="rotate(-180 74 68)" fill="#174DF2"/>
<rect x="64" y="74" width="10" height="4" transform="rotate(-90 64 74)" fill="#174DF2"/>
<rect x="74" y="74" width="6" height="4" transform="rotate(-90 74 74)" fill="#174DF2"/>
<rect x="74" y="78" width="6" height="4" transform="rotate(180 74 78)" fill="#174DF2"/>
<rect x="50" y="53" width="3" height="3" transform="rotate(-180 50 53)" fill="#174DF2"/>
<rect x="22" y="22" width="4" height="4" transform="rotate(-180 22 22)" fill="#174DF2"/>
<rect x="36" y="36" width="4" height="4" fill="#174DF2"/>
<rect x="25" y="25" width="4" height="4" transform="rotate(-180 25 25)" fill="#174DF2"/>
<rect x="33" y="33" width="4" height="4" fill="#174DF2"/>
<rect x="28" y="28" width="4" height="4" transform="rotate(-180 28 28)" fill="#174DF2"/>
<rect x="30" y="30" width="4" height="4" fill="#174DF2"/>
<rect x="31" y="31" width="4" height="4" transform="rotate(-180 31 31)" fill="#174DF2"/>
<rect x="34" y="28" width="4" height="4" transform="rotate(-180 34 28)" fill="#174DF2"/>
<rect x="24" y="30" width="4" height="4" fill="#174DF2"/>
<rect x="37" y="25" width="4" height="4" transform="rotate(-180 37 25)" fill="#174DF2"/>
<rect x="21" y="33" width="4" height="4" fill="#174DF2"/>
<rect x="40" y="22" width="4" height="4" transform="rotate(-180 40 22)" fill="#174DF2"/>
<rect x="18" y="36" width="4" height="4" fill="#174DF2"/>
<rect width="4" height="6" transform="matrix(1 0 0 -1 50 19)" fill="#174DF2"/>
<rect x="50" y="38" width="4" height="6" fill="#174DF2"/>
<rect width="4" height="19" transform="matrix(1 0 0 -1 54 38)" fill="#174DF2"/>
<rect width="4" height="19" transform="matrix(1 0 0 -1 0 38)" fill="#174DF2"/>
<rect width="4" height="4" transform="matrix(4.37114e-08 -1 -1 -4.37114e-08 51 14)" fill="#174DF2"/>
<rect x="51" y="43" width="4" height="4" transform="rotate(90 51 43)" fill="#174DF2"/>
<rect width="4" height="4" transform="matrix(4.37114e-08 -1 -1 -4.37114e-08 48 10)" fill="#174DF2"/>
<rect x="48" y="47" width="3" height="4" transform="rotate(90 48 47)" fill="#174DF2"/>
<rect width="3" height="5" transform="matrix(4.37114e-08 -1 -1 -4.37114e-08 44 7)" fill="#174DF2"/>
<rect x="44" y="50" width="3" height="5" transform="rotate(90 44 50)" fill="#174DF2"/>
<rect width="4" height="20" transform="matrix(4.37114e-08 -1 -1 -4.37114e-08 39 4)" fill="#174DF2"/>
<rect x="39" y="53" width="4" height="20" transform="rotate(90 39 53)" fill="#174DF2"/>
</svg>
