<svg width="88" height="65" viewBox="0 0 88 65" fill="none" xmlns="http://www.w3.org/2000/svg">
<rect x="69" y="7" width="67" height="2.99999" transform="rotate(-180 69 7)" fill="#174DF2"/>
<rect x="2" y="26" width="19" height="3" transform="rotate(-90 2 26)" fill="#174DF2"/>
<rect y="65" width="14" height="4" transform="rotate(-90 0 65)" fill="#174DF2"/>
<rect x="80" y="65" width="14" height="3" transform="rotate(-90 80 65)" fill="#174DF2"/>
<rect x="46" y="47" width="24" height="3" transform="rotate(-90 46 47)" fill="#174DF2"/>
<rect x="4" y="27" width="2" height="3" transform="rotate(-90 4 27)" fill="#174DF2"/>
<rect width="2" height="3" transform="matrix(4.37114e-08 -1 -1 -4.37114e-08 19 27)" fill="#174DF2"/>
<rect width="2" height="4" transform="matrix(4.37114e-08 -1 -1 -4.37114e-08 22 26)" fill="#174DF2"/>
<rect width="3" height="5" transform="matrix(4.37114e-08 -1 -1 -4.37114e-08 64 18)" fill="#174DF2"/>
<rect width="3" height="13" transform="matrix(4.37114e-08 -1 -1 -4.37114e-08 68 44)" fill="#174DF2"/>
<rect width="3" height="7" transform="matrix(4.37114e-08 -1 -1 -4.37114e-08 65 37)" fill="#174DF2"/>
<rect width="9" height="5" transform="matrix(4.37114e-08 -1 -1 -4.37114e-08 88 22)" fill="#174DF2"/>
<rect width="24" height="7" transform="matrix(4.37114e-08 -1 -1 -4.37114e-08 80 27)" fill="#174DF2"/>
<rect width="2" height="4" transform="matrix(4.37114e-08 -1 -1 -4.37114e-08 77 29)" fill="#174DF2"/>
<rect width="18" height="3" transform="matrix(4.37114e-08 -1 -1 -4.37114e-08 76 47)" fill="#174DF2"/>
<rect width="3" height="3" transform="matrix(4.37114e-08 -1 -1 -4.37114e-08 78 3)" fill="#174DF2"/>
<rect width="3" height="5" transform="matrix(1 0 0 -1 55 41)" fill="#174DF2"/>
<rect width="3" height="5" transform="matrix(1 0 0 -1 65 41)" fill="#174DF2"/>
<rect x="64" y="25" width="3" height="5" transform="rotate(90 64 25)" fill="#174DF2"/>
<rect x="58" y="25" width="3" height="7" transform="rotate(-180 58 25)" fill="#174DF2"/>
<rect x="68" y="25" width="3" height="7" transform="rotate(-180 68 25)" fill="#174DF2"/>
<rect width="2" height="3" transform="matrix(2.18557e-08 -1 -1 -8.74228e-08 60 19)" fill="#174DF2"/>
<rect x="60" y="24" width="2" height="3" transform="rotate(90 60 24)" fill="#174DF2"/>
<rect width="2" height="3" transform="matrix(2.18557e-08 -1 -1 -8.74228e-08 66 19)" fill="#174DF2"/>
<rect width="2" height="3" transform="matrix(4.37114e-08 -1 -1 -4.37114e-08 72 9)" fill="#174DF2"/>
<rect width="2" height="3" transform="matrix(4.37114e-08 -1 -1 -4.37114e-08 83 12)" fill="#174DF2"/>
<rect x="83" y="22" width="2" height="3" transform="rotate(90 83 22)" fill="#174DF2"/>
<rect width="2" height="3" transform="matrix(4.37114e-08 -1 -1 -4.37114e-08 74 11)" fill="#174DF2"/>
<rect width="2" height="2" transform="matrix(4.37114e-08 -1 -1 -4.37114e-08 84 13)" fill="#174DF2"/>
<rect x="84" y="20" width="2" height="2" transform="rotate(90 84 20)" fill="#174DF2"/>
<rect x="66" y="24" width="2" height="3" transform="rotate(90 66 24)" fill="#174DF2"/>
<rect width="3" height="25" transform="matrix(4.37114e-08 -1 -1 -4.37114e-08 46 24)" fill="#174DF2"/>
<rect x="4" y="33" width="6" height="4" transform="rotate(-90 4 33)" fill="#174DF2"/>
<rect width="6" height="3" transform="matrix(4.37114e-08 -1 -1 -4.37114e-08 18 33)" fill="#174DF2"/>
<rect x="11" y="47" width="9" height="1" transform="rotate(-90 11 47)" fill="#174DF2"/>
<rect x="8" y="38" width="7" height="7" transform="rotate(-90 8 38)" fill="#174DF2"/>
<rect x="7" y="48" width="1" height="9" transform="rotate(-90 7 48)" fill="#174DF2"/>
<rect x="4" y="50" width="3" height="75" transform="rotate(-90 4 50)" fill="#174DF2"/>
<rect x="2" y="52" width="2" height="79" transform="rotate(-90 2 52)" fill="#174DF2"/>
<rect x="2" y="65" width="4" height="79" transform="rotate(-90 2 65)" fill="#174DF2"/>
<rect x="13" y="5" width="8" height="3" transform="rotate(-180 13 5)" fill="#174DF2"/>
<rect x="64" y="5" width="8" height="3" transform="rotate(-180 64 5)" fill="#174DF2"/>
<rect x="12" y="3" width="6" height="3" transform="rotate(-180 12 3)" fill="#174DF2"/>
<rect x="63" y="3" width="6" height="3" transform="rotate(-180 63 3)" fill="#174DF2"/>
</svg>
