<svg width="20" height="20" viewBox="0 0 20 20" fill="none" xmlns="http://www.w3.org/2000/svg">
<g clip-path="url(#clip0_951_6842)">
<path d="M14.9163 2.90418C14.6125 2.60037 14.2004 2.42969 13.7707 2.42969H5.66975C5.24005 2.42969 4.82795 2.60037 4.5241 2.90418C4.22026 3.208 4.04956 3.62006 4.04956 4.04972V16.1999C4.04961 16.3418 4.0869 16.4811 4.15772 16.604C4.22854 16.727 4.3304 16.8291 4.4531 16.9003C4.57581 16.9715 4.71505 17.0092 4.85692 17.0097C4.99878 17.0102 5.13828 16.9734 5.26146 16.903L8.9166 14.8148C9.16135 14.675 9.43834 14.6015 9.72021 14.6015C10.0021 14.6015 10.2791 14.675 10.5238 14.8148L14.179 16.903C14.3021 16.9734 14.4416 17.0102 14.5835 17.0097C14.7254 17.0092 14.8646 16.9715 14.9873 16.9003C15.11 16.8291 15.2119 16.727 15.2827 16.604C15.3535 16.4811 15.3908 16.3418 15.3909 16.1999V4.04972C15.3909 3.62006 15.2202 3.208 14.9163 2.90418Z" stroke="#64799A" stroke-width="1.62" stroke-linecap="round"/>
</g>
<defs>
<clipPath id="clip0_951_6842">
<rect width="19.44" height="19.44" fill="white"/>
</clipPath>
</defs>
</svg>
